<?xml version="1.0" encoding="UTF-8"?>
<svg version="1.1" xmlns="http://www.w3.org/2000/svg" width="640" height="400">
<path d="M0 0 C211.2 0 422.4 0 640 0 C640 132 640 264 640 400 C428.8 400 217.6 400 0 400 C0 268 0 136 0 0 Z " fill="#FEFEFE" transform="translate(0,0)"/>
<path d="M0 0 C-1.36370299 2.99220268 -2.94908083 5.29026529 -5.125 7.75 C-5.66382813 8.36359375 -6.20265625 8.9771875 -6.7578125 9.609375 C-7.16773438 10.06828125 -7.57765625 10.5271875 -8 11 C-7.175 11.495 -6.35 11.99 -5.5 12.5 C-3 15 -3 15 -2.4375 18.875 C-3.00056034 26.70009491 -9.48129492 32.03327947 -15 37 C-18.45955792 39.56256156 -22.05229547 41.88306293 -25.6875 44.1875 C-35.36715489 50.36815891 -41.27207946 55.92567363 -47.0625 65.875 C-47.8369043 67.18404297 -47.8369043 67.18404297 -48.62695312 68.51953125 C-51.46133057 73.32172488 -54.24552927 78.15160307 -57 83 C-49.30540575 80.2052092 -42.00849998 77.25580748 -35 73 C-36.48582848 77.09487253 -38.65930796 78.20649547 -42.5 80.0625 C-43.4796875 80.54847656 -44.459375 81.03445312 -45.46875 81.53515625 C-49 83 -49 83 -51.35107422 83.39624023 C-55.7349757 84.22016498 -58.23927351 85.09802751 -61.17089844 88.57397461 C-63.31208275 91.96211732 -65.24676259 95.39991751 -67.125 98.9375 C-68.10563548 100.71620843 -69.09519488 102.48973364 -70.08560181 104.26301575 C-70.74125207 105.43775887 -71.39375091 106.61426651 -72.0430603 107.79252625 C-77.45421185 117.54275438 -83.88141459 126.4398639 -91 135 C-91.52464844 135.66 -92.04929688 136.32 -92.58984375 137 C-96.5679201 141.89609397 -100.89312991 145.96437664 -107 148 C-114.06735751 148.68393782 -114.06735751 148.68393782 -117.8125 145.9375 C-122.34297683 139.85371682 -123.99342292 134.43938303 -123 127 C-118.67576408 106.94892989 -105.89049056 93.99639685 -91 81 C-90.34 80.34 -89.68 79.68 -89 79 C-89.66 78.2575 -90.32 77.515 -91 76.75 C-94.18265217 71.87298624 -93.88056049 66.58139879 -93 61 C-90.07543547 52.54651422 -84.89587864 45.62276779 -79 39 C-78.43410156 38.36320312 -77.86820313 37.72640625 -77.28515625 37.0703125 C-63.5831441 22.56229963 -42.24107648 13.06058721 -22.5 11.1875 C-15.32454538 10.36113636 -12.44745989 7.37728148 -8 2 C-4.77208445 -0.1519437 -3.71599191 -0.20086443 0 0 Z " fill="#0F0F0F" transform="translate(231,113)"/>
<path d="M0 0 C-0.44813388 4.89289034 -2.92537135 7.8913362 -5.9375 11.5625 C-9.96359075 16.46084678 -9.96359075 16.46084678 -13 22 C-12.15179688 21.38253906 -11.30359375 20.76507813 -10.4296875 20.12890625 C-4.16671569 15.59604212 2.14304852 11.152932 8.625 6.9375 C9.49342529 6.3652771 9.49342529 6.3652771 10.37939453 5.78149414 C15.69278394 2.36663707 15.69278394 2.36663707 19 2 C19.99 2.495 19.99 2.495 21 3 C19.33383155 8.26213961 16.06931631 12.39159587 12.875 16.8125 C12.31167969 17.60076172 11.74835938 18.38902344 11.16796875 19.20117188 C9.78322342 21.13746831 8.39381373 23.07022641 7 25 C12.58403752 23.10410953 17.03391339 20.95139303 21.75 17.4375 C22.34272705 17.00711426 22.9354541 16.57672852 23.54614258 16.13330078 C28.77484705 12.28716969 33.70223477 8.12117375 38.57421875 3.8359375 C41 2 41 2 44 2 C42.19314662 7.21244091 39.10526786 11.03996722 35.77734375 15.37890625 C34.18677142 17.72456347 33.42207532 19.24027678 33 22 C39.54523354 18.08509396 45.38129274 13.96185809 51 8.8046875 C53.57155279 6.48426291 55.94115161 4.63612821 59 3 C61.375 3.25 61.375 3.25 63 4 C61.28113624 13.43226489 51.94884196 21.90455584 46 29 C58.46309542 22.23379287 69.56387484 14.61868015 79.84375 4.75 C81.98659737 3.0108775 83.3037133 2.39218716 86 2 C86.33 2.99 86.66 3.98 87 5 C85.46887768 7.38404927 83.9156029 9.57929531 82.1875 11.8125 C78.8940233 16.09264933 76.40968142 19.67906379 75 25 C80.84672308 22.77084041 85.57281262 19.72667477 90.625 16.0625 C91.36234375 15.53720703 92.0996875 15.01191406 92.859375 14.47070312 C95.94702414 12.26010128 98.96183609 10.03132321 101.8984375 7.62109375 C104 6 104 6 106 6 C106 6.66 106 7.32 106 8 C103.70675707 9.92729991 101.40852217 11.72595566 99 13.5 C97.92915161 14.29216919 97.92915161 14.29216919 96.83666992 15.1003418 C91.75518606 18.81289981 86.59708809 22.39510002 81.3125 25.8125 C80.65443359 26.25078125 79.99636719 26.6890625 79.31835938 27.140625 C76.36158119 29.00196111 74.58409753 30.0470673 71.04296875 29.76171875 C70.36878906 29.51035156 69.69460938 29.25898438 69 29 C68.59225896 24.92258955 69.14601957 22.34380524 71.015625 18.78125 C71.56911621 17.71487305 71.56911621 17.71487305 72.13378906 16.62695312 C72.41963867 16.09005859 72.70548828 15.55316406 73 15 C72.29206299 15.48243164 72.29206299 15.48243164 71.56982422 15.97460938 C69.34177784 17.48840682 67.10916579 18.99524801 64.875 20.5 C63.6533313 21.32431519 63.6533313 21.32431519 62.40698242 22.1652832 C58.05674803 25.06926777 53.69773141 27.79304319 49.07910156 30.24707031 C42.6683079 33.65978137 36.92188093 37.08089907 34 44 C33.71695354 47.10530686 33.81130958 50.04109942 33.984375 53.15234375 C34.0268728 60.89756758 28.39868 66.30235087 23.37109375 71.66015625 C13.90651085 81 13.90651085 81 7 81 C6.34 80.34 5.68 79.68 5 79 C5.26298117 74.28606254 6.6710037 71.5227511 9.5 67.8125 C10.21800781 66.86632812 10.93601562 65.92015625 11.67578125 64.9453125 C15.38679395 60.24261742 19.16066928 55.59843794 23 51 C23.55429687 50.33226562 24.10859375 49.66453125 24.6796875 48.9765625 C25.78333712 47.64844177 26.89099449 46.32365174 28 45 C25.77810176 42.77810176 23.91517292 42.07401108 21 41 C21 40.34 21 39.68 21 39 C22.05058594 38.77828125 23.10117187 38.5565625 24.18359375 38.328125 C35.2214694 35.66335664 39.96281918 31.87467595 46 22 C47.50427019 19.90467592 49.02430332 17.82054649 50.5625 15.75 C51.70925971 14.16733748 52.85545972 12.58426829 54 11 C51.26300044 12.82466637 48.83799548 14.77372433 46.3125 16.875 C41.35030399 20.85343704 36.54052215 24.70495649 30 25.25 C29.01 25.12625 29.01 25.12625 28 25 C27.875 18.375 27.875 18.375 29 15 C28.00033203 15.87011719 28.00033203 15.87011719 26.98046875 16.7578125 C14.5461483 27.29655123 14.5461483 27.29655123 7 30 C4.1796875 29.6484375 4.1796875 29.6484375 2 29 C1.25659883 24.81836844 1.46129963 22.88430495 3.7109375 19.19140625 C5.75398553 16.41448357 7.85809672 13.70103466 10 11 C10.66 10.01 11.32 9.02 12 8 C9.60069843 9.62006755 7.20489799 11.24477951 4.8125 12.875 C4.0915918 13.36589111 3.37068359 13.85678223 2.62792969 14.36254883 C-3.23801946 18.39393594 -8.81495257 22.70052602 -14.328125 27.19921875 C-17 29 -17 29 -21 29 C-20.4470225 25.24949454 -19.49770342 22.85472787 -17.27734375 19.79296875 C-16.73916016 19.04208984 -16.20097656 18.29121094 -15.64648438 17.51757812 C-15.08251953 16.74865234 -14.51855469 15.97972656 -13.9375 15.1875 C-13.36966797 14.39923828 -12.80183594 13.61097656 -12.21679688 12.79882812 C-10.81868466 10.86026918 -9.41298918 8.92772776 -8 7 C-10.72308623 8.28316083 -13.06054865 9.69069892 -15.43359375 11.5390625 C-16.39785278 12.28095825 -16.39785278 12.28095825 -17.3815918 13.0378418 C-18.0600415 13.561604 -18.73849121 14.08536621 -19.4375 14.625 C-38.27417495 28.9407004 -38.27417495 28.9407004 -46 30 C-48 27 -48 27 -47.6875 24.5 C-47.17901328 22.65095738 -46.60642538 20.81927613 -46 19 C-46.79664063 19.56589844 -47.59328125 20.13179687 -48.4140625 20.71484375 C-49.47367188 21.44832031 -50.53328125 22.18179688 -51.625 22.9375 C-52.66914063 23.66839844 -53.71328125 24.39929688 -54.7890625 25.15234375 C-58.00598969 27.00344662 -60.33705863 27.65350555 -64 28 C-64.61743164 26.20263672 -64.61743164 26.20263672 -65 24 C-63.56974288 21.53198876 -62.14413375 19.38610969 -60.4375 17.125 C-60.00630859 16.52558594 -59.57511719 15.92617187 -59.13085938 15.30859375 C-56.07951897 11.15300165 -52.84171994 7.44648126 -49 4 C-48.01 4 -47.02 4 -46 4 C-46.5031756 8.27185817 -49.20530804 10.90377124 -51.9375 14 C-56.02622755 18.62284896 -56.02622755 18.62284896 -59 24 C-51.14281311 19.95612052 -45.10217681 14.67015639 -38.78515625 8.609375 C-33.86526946 4 -33.86526946 4 -29 4 C-29.52053577 8.33425703 -32.29112689 11.22636595 -34.9375 14.5 C-38.95719138 19.43532714 -38.95719138 19.43532714 -42 25 C-31.0532005 21.01934564 -21.96144921 13.36996247 -13.07617188 6.03735352 C-12.47353516 5.54291748 -11.87089844 5.04848145 -11.25 4.5390625 C-10.71890625 4.09771973 -10.1878125 3.65637695 -9.640625 3.20166016 C-6.20970938 0.68871869 -4.36348161 0 0 0 Z " fill="#0F0F0F" transform="translate(251,184)"/>
<path d="M0 0 C0.74636719 -0.00515625 1.49273437 -0.0103125 2.26171875 -0.015625 C4.3125 0.25 4.3125 0.25 7.3125 2.25 C6.35491448 7.76808656 2.71773668 10.13216628 -1.6875 13.25 C-24.47193376 27.25 -24.47193376 27.25 -35.6875 27.25 C-35.96045898 27.83450928 -36.23341797 28.41901855 -36.51464844 29.02124023 C-37.66373505 31.20483968 -38.91954827 32.98202098 -40.453125 34.91015625 C-41.00701904 35.61253418 -41.56091309 36.31491211 -42.1315918 37.03857422 C-43.02551636 38.16416748 -43.02551636 38.16416748 -43.9375 39.3125 C-50.91415414 48.18123664 -57.6352428 57.22116498 -64.28393555 66.33740234 C-65.73800581 68.31882284 -67.20965018 70.28627053 -68.6875 72.25 C-67.87667969 72.4459375 -67.06585938 72.641875 -66.23046875 72.84375 C-57.6004821 75.17454965 -51.59132327 78.65811822 -44.6875 84.25 C-43.21340075 85.38163175 -41.73472564 86.50734675 -40.25 87.625 C-39.65316406 88.08648437 -39.05632812 88.54796875 -38.44140625 89.0234375 C-32.29672983 93.32060542 -26.00215189 92.95207596 -18.6875 92.25 C-15.66259672 91.21469084 -13.43208443 89.93897503 -10.6875 88.25 C-10.0275 88.25 -9.3675 88.25 -8.6875 88.25 C-9.65032594 90.66213236 -10.35158594 92.01644602 -12.5078125 93.515625 C-21.00188351 97.14360109 -30.64357732 97.94425326 -39.5859375 95.4375 C-45.36662722 92.81157155 -49.71757079 88.71706968 -54.30859375 84.40625 C-59.49586153 79.70449004 -64.45296092 76.14190657 -71.6875 76.25 C-74.30134038 78.14516101 -76.11185543 80.57411116 -78.0625 83.125 C-79.19823341 84.51749378 -80.33625598 85.90812363 -81.4765625 87.296875 C-82.29882324 88.3168457 -82.29882324 88.3168457 -83.13769531 89.35742188 C-89.38330812 96.9843895 -96.40603079 104.55205898 -106.625 105.6875 C-109.6875 105.25 -109.6875 105.25 -111.6875 103.25 C-111.84264914 96.88888518 -107.80228104 92.65506542 -103.6875 88.25 C-96.75531266 81.74115235 -88.52345505 74.6426444 -78.6875 73.6875 C-77.6975 73.543125 -76.7075 73.39875 -75.6875 73.25 C-74.59548265 71.40787495 -74.59548265 71.40787495 -73.6875 69.25 C-72.90514768 68.09707716 -72.09249985 66.96424709 -71.25390625 65.8515625 C-70.77526123 65.21412109 -70.29661621 64.57667969 -69.8034668 63.91992188 C-69.29082275 63.24509766 -68.77817871 62.57027344 -68.25 61.875 C-67.71866455 61.17181641 -67.1873291 60.46863281 -66.63989258 59.74414062 C-52.22109192 40.72132227 -52.22109192 40.72132227 -44.83203125 32.60546875 C-43.57997462 31.41833237 -43.57997462 31.41833237 -43.6875 30.25 C-44.88503906 30.51554687 -46.08257812 30.78109375 -47.31640625 31.0546875 C-65.37591707 35.00403898 -82.21147035 36.56303061 -100.6875 36.25 C-100.3575 34.93 -100.0275 33.61 -99.6875 32.25 C-98.84791748 32.23541748 -98.00833496 32.22083496 -97.14331055 32.20581055 C-73.26458654 31.7826232 -73.26458654 31.7826232 -49.6875 28.25 C-48.58019531 28.04246094 -47.47289062 27.83492187 -46.33203125 27.62109375 C-38.83102202 25.76767491 -34.80048965 21.80991383 -29.69750977 16.32739258 C-22.13963648 8.2943948 -11.5013587 -0.08028872 0 0 Z " fill="#0E0E0E" transform="translate(476.6875,116.75)"/>
<path d="M0 0 C0.84949219 0.32742187 1.69898438 0.65484375 2.57421875 0.9921875 C7.84057443 2.7938355 12.72272256 3.51874739 18.26171875 3.8671875 C11.33379263 21.89216314 -2.38505241 50.52186233 -19.80859375 60.65234375 C-23.68616763 62.26024439 -25.73806469 62.10361807 -29.73828125 60.8671875 C-33.2299553 57.50276105 -34.55439007 55.95911275 -35.3671875 51.1328125 C-35.37761751 49.79412845 -35.3543705 48.45483916 -35.30078125 47.1171875 C-35.28345947 46.41126465 -35.2661377 45.7053418 -35.24829102 44.97802734 C-34.97487084 38.89599383 -33.74649697 34.12478975 -30.73828125 28.8671875 C-30.29871094 28.09632813 -29.85914062 27.32546875 -29.40625 26.53125 C-25.82849662 20.93365104 -21.39417279 16.25356406 -16.73828125 11.5546875 C-16.1570752 10.9678418 -15.57586914 10.38099609 -14.97705078 9.77636719 C-4.7992791 -0.23277531 -4.7992791 -0.23277531 0 0 Z " fill="#FAFAFA" transform="translate(147.73828125,195.1328125)"/>
<path d="M0 0 C-2.43781498 3.73008264 -4.97143916 7.33468713 -7.65283203 10.89672852 C-11.3470801 15.80744065 -14.89073912 20.72797976 -18.0703125 25.9921875 C-18.58078125 26.83434814 -19.09125 27.67650879 -19.6171875 28.54418945 C-20.59556083 30.17824399 -21.55759757 31.82223412 -22.5 33.47729492 C-26.07051633 39.43635051 -30.02748169 42.55791498 -36 46 C-36.81903809 46.49653076 -37.63807617 46.99306152 -38.48193359 47.50463867 C-41.87601405 49.56122966 -45.29538504 51.57386555 -48.71484375 53.58789062 C-52.59442705 55.89120698 -56.3361595 58.20119202 -59.9296875 60.93359375 C-60.94289062 61.61550781 -61.95609375 62.29742187 -63 63 C-63.99 62.67 -64.98 62.34 -66 62 C-68.36768977 57.26462047 -67.55098954 51.11938823 -67 46 C-61.19670571 29.44669193 -45.27624321 15.62998296 -30 8 C-20.80181453 3.87318574 -10.23150283 -0.66009696 0 0 Z " fill="#FAFAFA" transform="translate(212,126)"/>
<path d="M0 0 C-0.44813388 4.89289034 -2.92537135 7.8913362 -5.9375 11.5625 C-9.96359075 16.46084678 -9.96359075 16.46084678 -13 22 C-12.15179688 21.38253906 -11.30359375 20.76507813 -10.4296875 20.12890625 C-4.16671569 15.59604212 2.14304852 11.152932 8.625 6.9375 C9.49342529 6.3652771 9.49342529 6.3652771 10.37939453 5.78149414 C15.69278394 2.36663707 15.69278394 2.36663707 19 2 C19.99 2.495 19.99 2.495 21 3 C19.33383155 8.26213961 16.06931631 12.39159587 12.875 16.8125 C12.31167969 17.60076172 11.74835938 18.38902344 11.16796875 19.20117188 C9.78322342 21.13746831 8.39381373 23.07022641 7 25 C12.58403752 23.10410953 17.03391339 20.95139303 21.75 17.4375 C22.34272705 17.00711426 22.9354541 16.57672852 23.54614258 16.13330078 C28.77484705 12.28716969 33.70223477 8.12117375 38.57421875 3.8359375 C41 2 41 2 44 2 C42.19314662 7.21244091 39.10526786 11.03996722 35.77734375 15.37890625 C34.18677142 17.72456347 33.42207532 19.24027678 33 22 C33.66 22 34.32 22 35 22 C35 22.66 35 23.32 35 24 C32.69 24.33 30.38 24.66 28 25 C27.875 18.375 27.875 18.375 29 15 C28.00033203 15.87011719 28.00033203 15.87011719 26.98046875 16.7578125 C14.5461483 27.29655123 14.5461483 27.29655123 7 30 C4.1796875 29.6484375 4.1796875 29.6484375 2 29 C1.25659883 24.81836844 1.46129963 22.88430495 3.7109375 19.19140625 C5.75398553 16.41448357 7.85809672 13.70103466 10 11 C10.66 10.01 11.32 9.02 12 8 C9.60069843 9.62006755 7.20489799 11.24477951 4.8125 12.875 C4.0915918 13.36589111 3.37068359 13.85678223 2.62792969 14.36254883 C-3.23801946 18.39393594 -8.81495257 22.70052602 -14.328125 27.19921875 C-17 29 -17 29 -21 29 C-20.4470225 25.24949454 -19.49770342 22.85472787 -17.27734375 19.79296875 C-16.73916016 19.04208984 -16.20097656 18.29121094 -15.64648438 17.51757812 C-15.08251953 16.74865234 -14.51855469 15.97972656 -13.9375 15.1875 C-13.36966797 14.39923828 -12.80183594 13.61097656 -12.21679688 12.79882812 C-10.81868466 10.86026918 -9.41298918 8.92772776 -8 7 C-10.72308623 8.28316083 -13.06054865 9.69069892 -15.43359375 11.5390625 C-16.39785278 12.28095825 -16.39785278 12.28095825 -17.3815918 13.0378418 C-18.0600415 13.561604 -18.73849121 14.08536621 -19.4375 14.625 C-38.27417495 28.9407004 -38.27417495 28.9407004 -46 30 C-48 27 -48 27 -47.6875 24.5 C-47.17901328 22.65095738 -46.60642538 20.81927613 -46 19 C-46.79664063 19.56589844 -47.59328125 20.13179687 -48.4140625 20.71484375 C-49.47367188 21.44832031 -50.53328125 22.18179688 -51.625 22.9375 C-52.66914063 23.66839844 -53.71328125 24.39929688 -54.7890625 25.15234375 C-58.00598969 27.00344662 -60.33705863 27.65350555 -64 28 C-64.61743164 26.20263672 -64.61743164 26.20263672 -65 24 C-63.56974288 21.53198876 -62.14413375 19.38610969 -60.4375 17.125 C-60.00630859 16.52558594 -59.57511719 15.92617187 -59.13085938 15.30859375 C-56.07951897 11.15300165 -52.84171994 7.44648126 -49 4 C-48.01 4 -47.02 4 -46 4 C-46.5031756 8.27185817 -49.20530804 10.90377124 -51.9375 14 C-56.02622755 18.62284896 -56.02622755 18.62284896 -59 24 C-51.14281311 19.95612052 -45.10217681 14.67015639 -38.78515625 8.609375 C-33.86526946 4 -33.86526946 4 -29 4 C-29.52053577 8.33425703 -32.29112689 11.22636595 -34.9375 14.5 C-38.95719138 19.43532714 -38.95719138 19.43532714 -42 25 C-31.0532005 21.01934564 -21.96144921 13.36996247 -13.07617188 6.03735352 C-12.47353516 5.54291748 -11.87089844 5.04848145 -11.25 4.5390625 C-10.71890625 4.09771973 -10.1878125 3.65637695 -9.640625 3.20166016 C-6.20970938 0.68871869 -4.36348161 0 0 0 Z " fill="#101010" transform="translate(251,184)"/>
<path d="M0 0 C0.99 0.33 1.98 0.66 3 1 C1.2753011 6.04215253 -1.70502607 10.01901066 -4.81054688 14.27148438 C-6.84164398 17.11369064 -8.5112135 19.49274246 -9 23 C0.80380801 19.08837963 9.38599912 13.11050095 16.56640625 5.375 C18.48155924 3.53812302 20.45850965 2.69313373 23 2 C23.495 2.99 23.495 2.99 24 4 C23.39671875 4.71285156 22.7934375 5.42570313 22.171875 6.16015625 C17.92895159 11.24482092 14.01788916 16.09543426 11 22 C18.76857883 17.64008331 24.95754901 12.55284105 31.22705078 6.26879883 C31.79020996 5.71732178 32.35336914 5.16584473 32.93359375 4.59765625 C33.42915771 4.09758057 33.92472168 3.59750488 34.43530273 3.08227539 C36 2 36 2 40 2 C39.48325598 6.39232415 37.98844713 8.61778932 35.125 11.9375 C32.14041918 15.51578775 29.80426878 18.71486166 28 23 C33.84672308 20.77084041 38.57281262 17.72667477 43.625 14.0625 C44.73101563 13.27456055 44.73101563 13.27456055 45.859375 12.47070312 C48.94702414 10.26010128 51.96183609 8.03132321 54.8984375 5.62109375 C57 4 57 4 59 4 C59 4.66 59 5.32 59 6 C56.70677143 7.92728784 54.408409 9.72583493 52 11.5 C51.28682617 12.02811279 50.57365234 12.55622559 49.83886719 13.1003418 C44.74315805 16.82614665 39.56088858 20.40047661 34.25 23.8125 C33.58355469 24.25078125 32.91710937 24.6890625 32.23046875 25.140625 C27.5169102 28.09264832 27.5169102 28.09264832 24.79199219 27.60424805 C24.20063477 27.40484619 23.60927734 27.20544434 23 27 C21.82407324 22.88425634 22.29817397 20.86483393 24 17 C22.69675781 17.84884766 22.69675781 17.84884766 21.3671875 18.71484375 C20.20345798 19.45625207 19.03937662 20.19710835 17.875 20.9375 C17.30523437 21.31068359 16.73546875 21.68386719 16.1484375 22.06835938 C12.43510776 24.41028893 9.36847382 25.58174187 5 26 C5.48578543 22.87709365 5.9986012 20.00419641 7 17 C5.97519531 17.71027344 4.95039063 18.42054688 3.89453125 19.15234375 C2.53414682 20.08115795 1.17345339 21.00951969 -0.1875 21.9375 C-0.86103516 22.40607422 -1.53457031 22.87464844 -2.22851562 23.35742188 C-8.71754681 27.75730156 -8.71754681 27.75730156 -13 28 C-13.66 27.67 -14.32 27.34 -15 27 C-15.47400705 21.72968428 -13.9855083 18.39582693 -11.3125 14 C-10.80299805 13.11441406 -10.80299805 13.11441406 -10.28320312 12.2109375 C-4.37829333 2.18914666 -4.37829333 2.18914666 0 0 Z " fill="#111111" transform="translate(484,186)"/>
<path d="M0 0 C4.875 0.875 4.875 0.875 6 2 C6.58408635 6.75613172 6.54479352 9.85836492 3.8125 13.875 C-2.64108525 21.64689482 -12.19735825 28.18346017 -21 33 C-21.66 32.67 -22.32 32.34 -23 32 C-15.77611655 20.96057894 -8.28016653 10.28522928 0 0 Z " fill="#F2F2F2" transform="translate(219,126)"/>
<path d="M0 0 C0.33 0.66 0.66 1.32 1 2 C-0.59162677 5.88183132 -2.75119238 9.47614386 -4.8125 13.125 C-5.35326172 14.16527344 -5.89402344 15.20554688 -6.45117188 16.27734375 C-10.60271623 23.58444488 -10.60271623 23.58444488 -14.51855469 24.74902344 C-20.64807861 24.87818531 -24.81302272 23.07376432 -30 20 C-26.09446309 16.77142282 -22.03167742 13.91775749 -17.8125 11.125 C-17.15628662 10.68881348 -16.50007324 10.25262695 -15.82397461 9.80322266 C-10.64115901 6.37844347 -5.37705329 3.11236496 0 0 Z " fill="#F4F4F4" transform="translate(180,172)"/>
<path d="M0 0 C0 4.18894513 -2.3070354 6.11856911 -4.9375 9.125 C-5.43386963 9.70032471 -5.93023926 10.27564941 -6.44165039 10.8684082 C-18.72922712 24.97112816 -18.72922712 24.97112816 -24 27 C-26.75 26.625 -26.75 26.625 -29 26 C-28.0548734 18.70719881 -22.78162071 14.32005956 -17.33984375 9.78125 C-11.86924422 5.65714121 -6.41827736 2.40883496 0 0 Z " fill="#F1F1F1" transform="translate(397,192)"/>
<path d="M0 0 C0.495 1.98 0.495 1.98 1 4 C-8.08276396 12.4984926 -20.25423278 17.30954363 -32 21 C-27.89206772 11.93489944 -18.03729039 5.20341339 -9.25 1.0625 C-5.95360802 -0.01516661 -3.44238808 -0.25188205 0 0 Z " fill="#F0F0F0" transform="translate(478,119)"/>
<path d="M0 0 C-1.78927028 5.15347117 -4.81562996 8.90696298 -8.125 13.18359375 C-10.04811689 16.07227558 -11.05967469 18.67457872 -12 22 C-6.15327692 19.77084041 -1.42718738 16.72667477 3.625 13.0625 C4.73101562 12.27456055 4.73101562 12.27456055 5.859375 11.47070312 C8.94702414 9.26010128 11.96183609 7.03132321 14.8984375 4.62109375 C17 3 17 3 19 3 C19 3.66 19 4.32 19 5 C16.70675707 6.92729991 14.40852217 8.72595566 12 10.5 C11.28610107 11.02811279 10.57220215 11.55622559 9.83666992 12.1003418 C4.75518606 15.81289981 -0.40291191 19.39510002 -5.6875 22.8125 C-6.34556641 23.25078125 -7.00363281 23.6890625 -7.68164062 24.140625 C-10.63841881 26.00196111 -12.41590247 27.0470673 -15.95703125 26.76171875 C-16.63121094 26.51035156 -17.30539062 26.25898438 -18 26 C-18.58479835 17.78845657 -13.9820906 11.55891835 -8.859375 5.4453125 C-3.6272242 0 -3.6272242 0 0 0 Z " fill="#0F0F0F" transform="translate(338,187)"/>
<path d="M0 0 C0.33 0 0.66 0 1 0 C0.82327219 10.78039623 -4.87590768 18.32727782 -12.32421875 25.7578125 C-14.20045295 27.1485875 -15.71767174 27.5922638 -18 28 C-17.46277145 23.38665643 -15.60350812 20.56686135 -12.9375 16.8125 C-12.53917969 16.25022705 -12.14085937 15.6879541 -11.73046875 15.10864258 C-8.02496241 9.92782289 -4.22287394 4.77227846 0 0 Z " fill="#EFEFEF" transform="translate(281,232)"/>
<path d="M0 0 C-0.33 0.99 -0.66 1.98 -1 3 C-12.93752093 5.56622331 -24.85564688 5.20232807 -37 5 C-36.67 3.68 -36.34 2.36 -36 1 C-31.67671027 0.85653897 -27.35338673 0.71415641 -23.0300293 0.57275391 C-21.5606186 0.52454468 -20.09121738 0.47604567 -18.62182617 0.42724609 C-16.50441907 0.35697657 -14.38697959 0.28776438 -12.26953125 0.21875 C-10.99698486 0.17685547 -9.72443848 0.13496094 -8.41333008 0.09179688 C-5.60615733 0.01630178 -2.80783527 -0.01876582 0 0 Z " fill="#171717" transform="translate(413,148)"/>
<path d="M0 0 C-1.80685338 5.21244091 -4.89473214 9.03996722 -8.22265625 13.37890625 C-9.81322858 15.72456347 -10.57792468 17.24027678 -11 20 C-10.34 20 -9.68 20 -9 20 C-9 20.66 -9 21.32 -9 22 C-11.31 22.33 -13.62 22.66 -16 23 C-16.46314723 17.21065961 -15.49002189 14.58688591 -12 10 C-11.54625 9.154375 -11.0925 8.30875 -10.625 7.4375 C-8.01463467 3.52195201 -4.94100915 0 0 0 Z " fill="#0A0A0A" transform="translate(295,186)"/>
<path d="M0 0 C0.99 0.66 1.98 1.32 3 2 C3.52656187 6.51338744 3.53469485 8.9306103 1.5 13 C-4.8349053 20.60188636 -11.45509928 25.97358781 -20 31 C-18.61321594 26.15050973 -16.2845353 24.42371462 -12.1875 21.625 C-4.26539207 16.03168734 -4.26539207 16.03168734 -0.4921875 7.34375 C-0.22303871 4.88690463 -0.0546685 2.4700221 0 0 Z " fill="#141414" transform="translate(225,126)"/>
<path d="M0 0 C0.99 0.33 1.98 0.66 3 1 C2.46890625 1.44730469 1.9378125 1.89460937 1.390625 2.35546875 C-3.13933587 6.22537771 -3.13933587 6.22537771 -7.0625 10.6875 C-9.13299411 13.15873491 -11.23282158 14.31975912 -14.02319336 15.86499023 C-18.07809344 18.19316492 -21.88886734 20.91457267 -25.74609375 23.55273438 C-28.47751286 25.40045907 -30.85495387 26.95165129 -34 28 C-34.33 27.34 -34.66 26.68 -35 26 C-34.07960938 25.47792969 -33.15921875 24.95585937 -32.2109375 24.41796875 C-25.30507943 20.42961281 -18.70674709 16.25296711 -12.4375 11.3125 C-11.8791748 10.87381592 -11.32084961 10.43513184 -10.74560547 9.9831543 C-6.90184197 6.88977384 -3.44147789 3.53463068 0 0 Z " fill="#1D1D1D" transform="translate(334,186)"/>
<path d="M0 0 C0.99 0.33 1.98 0.66 3 1 C1.64975812 5.84199642 -0.36616696 9.2990566 -3.375 13.3125 C-4.14585937 14.36050781 -4.91671875 15.40851563 -5.7109375 16.48828125 C-7.93239139 18.92581512 -8.78534355 19.72844226 -12 20 C-10.67576584 17.26644033 -9.23415194 14.67993385 -7.6171875 12.109375 C-7.17246094 11.40039062 -6.72773438 10.69140625 -6.26953125 9.9609375 C-5.80933594 9.23132813 -5.34914062 8.50171875 -4.875 7.75 C-4.40707031 7.00492188 -3.93914062 6.25984375 -3.45703125 5.4921875 C-2.30631492 3.66043497 -1.15337556 1.8300793 0 0 Z " fill="#1B1B1B" transform="translate(150,227)"/>
<path d="M0 0 C0.99 0.33 1.98 0.66 3 1 C1.60916168 3.78167664 -0.3264463 4.43572667 -3 6 C-5.75356697 7.98801924 -8.46804957 10.02294477 -11.18359375 12.0625 C-14.02156587 14.01483588 -16.88763343 15.53319985 -20 17 C-19.921875 15.28125 -19.921875 15.28125 -19 13 C-16.76912055 11.34144041 -14.62796139 9.9104103 -12.25 8.5 C-11.00355065 7.74230361 -9.75872947 6.98192173 -8.515625 6.21875 C-7.91556641 5.85394531 -7.31550781 5.48914063 -6.69726562 5.11328125 C-4.75287741 3.88733773 -4.75287741 3.88733773 -2.234375 1.65625 C-1.12835938 0.83640625 -1.12835938 0.83640625 0 0 Z " fill="#1B1B1B" transform="translate(281,195)"/>
<path d="M0 0 C0.66 0.33 1.32 0.66 2 1 C-3.21179756 7.89302258 -9.99271615 13.62851206 -18 17 C-18 16.01 -18 15.02 -18 14 C-15.83984375 12.16796875 -15.83984375 12.16796875 -12.9375 10.1875 C-8.37922509 7.00141896 -4.15420197 3.69262397 0 0 Z " fill="#1A1A1A" transform="translate(304,191)"/>
<path d="M0 0 C-0.33 0.66 -0.66 1.32 -1 2 C-3.73204127 2.75774926 -6.41882841 3.410823 -9.1875 4 C-14.23254488 5.10104986 -19.1255848 6.25858213 -24 8 C-24.33 7.01 -24.66 6.02 -25 5 C-21.96164506 4.15426306 -18.91886087 3.32568074 -15.875 2.5 C-14.59109375 2.14228516 -14.59109375 2.14228516 -13.28125 1.77734375 C-8.74259129 0.55539717 -4.74779188 -0.31133062 0 0 Z " fill="#1D1D1D" transform="translate(212,124)"/>
<path d="M0 0 C-1.46702707 3.53812411 -3.37819429 5.39108134 -6.3125 7.8125 C-10.30742201 11.25506945 -13.14177614 14.58274495 -16 19 C-16.66 19.99 -17.32 20.98 -18 22 C-17.8121651 14.67443889 -12.80338024 9.75295973 -7.828125 4.8671875 C-2.42889676 0 -2.42889676 0 0 0 Z " fill="#2A2A2A" transform="translate(383,198)"/>
<path d="M0 0 C0 0.66 0 1.32 0 2 C-1.3894043 3.28100586 -1.3894043 3.28100586 -3.32421875 4.71484375 C-4.02353516 5.23626953 -4.72285156 5.75769531 -5.44335938 6.29492188 C-6.18392578 6.83697266 -6.92449219 7.37902344 -7.6875 7.9375 C-8.40873047 8.47568359 -9.12996094 9.01386719 -9.87304688 9.56835938 C-13.48319138 12.24217417 -17.08410337 14.78330901 -21 17 C-21 16.01 -21 15.02 -21 14 C-18.80487579 12.22073153 -16.64926586 10.63357235 -14.3125 9.0625 C-13.05768434 8.20054115 -11.80376278 7.33727911 -10.55078125 6.47265625 C-9.94572754 6.05902832 -9.34067383 5.64540039 -8.71728516 5.21923828 C-7.15127601 4.10740295 -5.65458525 2.89954352 -4.16796875 1.68359375 C-2 0 -2 0 0 0 Z " fill="#232323" transform="translate(543,190)"/>
<path d="M0 0 C0.66 0.66 1.32 1.32 2 2 C-0.2045351 3.60961261 -2.41334509 5.21272145 -4.625 6.8125 C-5.24246094 7.26431641 -5.85992187 7.71613281 -6.49609375 8.18164062 C-10.1919139 10.84652147 -13.84706439 13.07687136 -18 15 C-18.33 14.01 -18.66 13.02 -19 12 C-17.906875 11.505 -16.81375 11.01 -15.6875 10.5 C-9.99624608 7.67991727 -5.04745691 3.82270634 0 0 Z " fill="#252525" transform="translate(229,197)"/>
<path d="M0 0 C1.32 0.66 2.64 1.32 4 2 C3.59316505 4.35964273 3.10185661 5.85934088 1.6875 7.8125 C0 9 0 9 -2.1875 8.6875 C-2.785625 8.460625 -3.38375 8.23375 -4 8 C-3.50168276 4.31245243 -2.89932357 2.39509338 0 0 Z " fill="#161616" transform="translate(492,173)"/>
<path d="M0 0 C0.99 0.33 1.98 0.66 3 1 C3.23053497 3.84326464 3.35903101 5.46145349 1.75 7.875 C0 9 0 9 -2.1875 8.6875 C-2.785625 8.460625 -3.38375 8.23375 -4 8 C-3.50168276 4.31245243 -2.89932357 2.39509338 0 0 Z " fill="#101010" transform="translate(343,173)"/>
<path d="M0 0 C-3.16440426 2.3863947 -6.35813589 4.7300717 -9.5625 7.0625 C-10.51253906 7.75472656 -11.46257812 8.44695312 -12.44140625 9.16015625 C-14.26975197 10.47489035 -16.12624678 11.75083119 -18 13 C-15.50999976 6.88818122 -7.0245576 -2.3415192 0 0 Z " fill="#1C1C1C" transform="translate(469,120)"/>
<path d="M0 0 C0.99 0.66 1.98 1.32 3 2 C3.43249659 6.39704865 3.45677949 8.9559326 1.6875 13 C1.130625 13.66 0.57375 14.32 0 15 C-0.99 15 -1.98 15 -3 15 C-2.690625 14.38125 -2.38125 13.7625 -2.0625 13.125 C-0.5960722 8.81197706 -0.33380974 4.5240004 0 0 Z " fill="#1B1B1B" transform="translate(225,126)"/>
<path d="M0 0 C0 0.66 0 1.32 0 2 C-1.46875 3.32861328 -1.46875 3.32861328 -3.5 4.8203125 C-4.221875 5.35527344 -4.94375 5.89023438 -5.6875 6.44140625 C-6.450625 6.99699219 -7.21375 7.55257812 -8 8.125 C-9.1446875 8.96998047 -9.1446875 8.96998047 -10.3125 9.83203125 C-12.20418566 11.22714943 -14.10008585 12.61611971 -16 14 C-16.66 13.34 -17.32 12.68 -18 12 C-14 9 -10 6 -6 3 C-5.25234375 2.40832031 -4.5046875 1.81664062 -3.734375 1.20703125 C-2 0 -2 0 0 0 Z " fill="#2B2B2B" transform="translate(357,190)"/>
<path d="M0 0 C0 0.99 0 1.98 0 3 C-4.76950631 7.26266504 -10.95509199 9.27888036 -17 11 C-17.66 10.34 -18.32 9.68 -19 9 C-18.29875 8.76925781 -17.5975 8.53851563 -16.875 8.30078125 C-10.70323016 6.17923537 -5.35189843 3.74172841 0 0 Z " fill="#252525" transform="translate(195,186)"/>
<path d="M0 0 C-1.65 1.98 -3.3 3.96 -5 6 C-6.32 5.67 -7.64 5.34 -9 5 C-9 4.34 -9 3.68 -9 3 C-9.99 2.67 -10.98 2.34 -12 2 C-10.37787941 1.47026689 -8.75218416 0.95146893 -7.125 0.4375 C-6.22007812 0.14746094 -5.31515625 -0.14257812 -4.3828125 -0.44140625 C-2 -1 -2 -1 0 0 Z " fill="#747474" transform="translate(287,220)"/>
<path d="M0 0 C-1.06186374 3.42156094 -2.06057448 4.03200161 -5.3125 5.75 C-8.55488708 6.84911426 -10.64158092 7.30531083 -14 7 C-12.5438656 4.08773121 -10.50039336 3.68157936 -7.5625 2.375 C-6.07943359 1.70597656 -6.07943359 1.70597656 -4.56640625 1.0234375 C-2 0 -2 0 0 0 Z " fill="#181818" transform="translate(468,205)"/>
<path d="M0 0 C0.66 0.33 1.32 0.66 2 1 C1.01 2.485 1.01 2.485 0 4 C-0.33 4.66 -0.66 5.32 -1 6 C-2.42385815 6.91047503 -3.88918676 7.75708344 -5.375 8.5625 C-6.16648437 8.99691406 -6.95796875 9.43132812 -7.7734375 9.87890625 C-10 11 -10 11 -13 12 C-13 11.34 -13 10.68 -13 10 C-11.25832301 8.6019984 -9.45529359 7.27979397 -7.625 6 C-3.62788786 3.21935232 -3.62788786 3.21935232 0 0 Z " fill="#262626" transform="translate(510,197)"/>
<path d="M0 0 C-2.4384028 2.4384028 -4.9135688 3.58920371 -8 5.125 C-9.0725 5.66382813 -10.145 6.20265625 -11.25 6.7578125 C-14 8 -14 8 -16 8 C-15 5 -15 5 -12.890625 3.61328125 C-12.01921875 3.18402344 -11.1478125 2.75476563 -10.25 2.3125 C-9.38890625 1.87550781 -8.5278125 1.43851563 -7.640625 0.98828125 C-4.88971748 -0.04127438 -2.90929095 -0.19360389 0 0 Z " fill="#151515" transform="translate(399,191)"/>
<path d="M0 0 C0.99 0.33 1.98 0.66 3 1 C2.20335937 1.67095703 2.20335937 1.67095703 1.390625 2.35546875 C-2.47888319 5.66714638 -5.98587305 8.85557544 -9 13 C-9.99 12.67 -10.98 12.34 -12 12 C-8 8 -4 4 0 0 Z " fill="#2B2B2B" transform="translate(334,186)"/>
<path d="M0 0 C0.66 0.33 1.32 0.66 2 1 C-1.67557852 5.00972202 -5.18966896 7.45335415 -10 10 C-10.33 9.34 -10.66 8.68 -11 8 C-10.37351563 7.59007812 -9.74703125 7.18015625 -9.1015625 6.7578125 C-8.28429687 6.21898437 -7.46703125 5.68015625 -6.625 5.125 C-5.40683594 4.32449219 -5.40683594 4.32449219 -4.1640625 3.5078125 C-1.92405904 2.04134945 -1.92405904 2.04134945 0 0 Z " fill="#222222" transform="translate(205,199)"/>
<path d="M0 0 C0.33 0.99 0.66 1.98 1 3 C-2.63 5.31 -6.26 7.62 -10 10 C-10 9.01 -10 8.02 -10 7 C-7.8125 5.17578125 -7.8125 5.17578125 -5 3.3125 C-3.6078125 2.37857422 -3.6078125 2.37857422 -2.1875 1.42578125 C-1.1046875 0.72001953 -1.1046875 0.72001953 0 0 Z " fill="#242424" transform="translate(259,191)"/>
<path d="M0 0 C0.99 0.66 1.98 1.32 3 2 C-2.94 5.465 -2.94 5.465 -9 9 C-9.33 8.34 -9.66 7.68 -10 7 C-6.7 4.69 -3.4 2.38 0 0 Z " fill="#262626" transform="translate(492,199)"/>
<path d="M0 0 C0.66 0.33 1.32 0.66 2 1 C-0.77280706 4.08089673 -3.06326356 5.68775452 -7 7 C-6.875 5.1875 -6.875 5.1875 -6 3 C-3.0625 1.1875 -3.0625 1.1875 0 0 Z " fill="#070707" transform="translate(468,130)"/>
<path d="M0 0 C0.66 0.33 1.32 0.66 2 1 C-1.32307692 5.8 -1.32307692 5.8 -4.75 6.8125 C-5.4925 6.874375 -6.235 6.93625 -7 7 C-4.66666667 4.66666667 -2.33333333 2.33333333 0 0 Z " fill="#202020" transform="translate(304,191)"/>
<path d="M0 0 C0.66 0.66 1.32 1.32 2 2 C-2.455 4.97 -2.455 4.97 -7 8 C-7 7.01 -7 6.02 -7 5 C-5.46875 3.61328125 -5.46875 3.61328125 -3.5 2.3125 C-2.8503125 1.87550781 -2.200625 1.43851563 -1.53125 0.98828125 C-1.0259375 0.66214844 -0.520625 0.33601562 0 0 Z " fill="#292929" transform="translate(529,199)"/>
<path d="M0 0 C0.99 0.33 1.98 0.66 3 1 C1.3813036 4.23739279 -1.84489543 5.42244771 -5 7 C-4.6189482 4.23737447 -4.16402868 3.15856106 -2.125 1.1875 C-1.42375 0.795625 -0.7225 0.40375 0 0 Z " fill="#1E1E1E" transform="translate(281,195)"/>
<path d="M0 0 C0.66 0.33 1.32 0.66 2 1 C-1.465 3.97 -1.465 3.97 -5 7 C-5.33 6.01 -5.66 5.02 -6 4 C-4.02 2.68 -2.04 1.36 0 0 Z " fill="#181818" transform="translate(247,200)"/>
<path d="M0 0 C0 0.99 0 1.98 0 3 C-3 5.1875 -3 5.1875 -6 7 C-5.8125 5.1875 -5.8125 5.1875 -5 3 C-2.4375 1.25 -2.4375 1.25 0 0 Z " fill="#141414" transform="translate(275,200)"/>
<path d="M0 0 C0.66 0.33 1.32 0.66 2 1 C-2.75 5.875 -2.75 5.875 -5 7 C-4.60196439 4.11424181 -4.20990931 3.17810487 -1.9375 1.25 C-1.298125 0.8375 -0.65875 0.425 0 0 Z " fill="#191919" transform="translate(243,186)"/>
</svg>
